<svg width="2806" height="740" viewBox="0 0 2806 740" fill="none" xmlns="http://www.w3.org/2000/svg">
<path d="M150.27 586V413.75L18.83 191.15H112.64L208.04 358.63H174.65L269.52 191.15H363.33L232.42 413.22V586H150.27ZM337.658 586L471.218 191.15H580.398L713.958 586H624.388L597.888 505.44H453.198L426.698 586H337.658ZM475.988 433.89H575.098L514.678 247.33H536.938L475.988 433.89ZM754.992 586V191.15H834.492L982.362 387.25H945.262L1088.89 191.15H1168.39V586H1086.24V281.78L1119.1 289.2L966.992 485.3H956.392L809.582 289.2L837.142 281.78V586H754.992ZM1238.41 586V191.15H1320.56V514.45H1487.51V586H1238.41Z" fill="white"/>
<path d="M1705.52 592.36C1677.26 592.36 1650.93 587.237 1626.55 576.99C1602.53 566.743 1581.5 552.433 1563.48 534.06C1545.46 515.687 1531.33 494.133 1521.08 469.4C1511.19 444.667 1506.24 417.637 1506.24 388.31C1506.24 358.983 1511.19 331.953 1521.08 307.22C1530.98 282.133 1544.93 260.58 1562.95 242.56C1580.97 224.187 1602 210.053 1626.02 200.16C1650.4 189.913 1676.9 184.79 1705.52 184.79C1734.14 184.79 1759.76 189.56 1782.37 199.1C1805.34 208.64 1824.77 221.36 1840.67 237.26C1856.57 253.16 1867.88 270.827 1874.59 290.26L1801.98 325.24C1795.27 306.16 1783.43 290.437 1766.47 278.07C1749.87 265.35 1729.55 258.99 1705.52 258.99C1682.2 258.99 1661.71 264.467 1644.04 275.42C1626.38 286.373 1612.6 301.567 1602.7 321C1593.16 340.08 1588.39 362.517 1588.39 388.31C1588.39 414.103 1593.16 436.717 1602.7 456.15C1612.6 475.583 1626.38 490.777 1644.04 501.73C1661.71 512.683 1682.2 518.16 1705.52 518.16C1729.55 518.16 1749.87 511.977 1766.47 499.61C1783.43 486.89 1795.27 470.99 1801.98 451.91L1874.59 486.89C1867.88 506.323 1856.57 523.99 1840.67 539.89C1824.77 555.79 1805.34 568.51 1782.37 578.05C1759.76 587.59 1734.14 592.36 1705.52 592.36ZM2059.93 592.36C2031.31 592.36 2005.16 585.823 1981.49 572.75C1958.17 559.677 1939.44 541.833 1925.31 519.22C1911.53 496.253 1904.64 470.283 1904.64 441.31C1904.64 411.983 1911.53 386.013 1925.31 363.4C1939.44 340.787 1958.17 322.943 1981.49 309.87C2005.16 296.797 2031.31 290.26 2059.93 290.26C2088.55 290.26 2114.52 296.797 2137.84 309.87C2161.16 322.943 2179.71 340.787 2193.49 363.4C2207.62 386.013 2214.69 411.983 2214.69 441.31C2214.69 470.283 2207.62 496.253 2193.49 519.22C2179.71 541.833 2161.16 559.677 2137.84 572.75C2114.52 585.823 2088.55 592.36 2059.93 592.36ZM2059.93 520.81C2074.42 520.81 2086.96 517.453 2097.56 510.74C2108.51 504.027 2116.99 494.663 2123 482.65C2129.36 470.637 2132.54 456.857 2132.54 441.31C2132.54 425.763 2129.36 412.16 2123 400.5C2116.99 388.487 2108.51 379.123 2097.56 372.41C2086.96 365.343 2074.42 361.81 2059.93 361.81C2045.44 361.81 2032.72 365.343 2021.77 372.41C2010.82 379.123 2002.16 388.487 1995.8 400.5C1989.79 412.16 1986.79 425.763 1986.79 441.31C1986.79 456.857 1989.79 470.637 1995.8 482.65C2002.16 494.663 2010.82 504.027 2021.77 510.74C2032.72 517.453 2045.44 520.81 2059.93 520.81ZM2261.53 586V296.62H2335.73V366.05L2330.43 355.98C2336.79 331.6 2347.21 315.17 2361.7 306.69C2376.54 297.857 2394.03 293.44 2414.17 293.44H2431.13V362.34H2406.22C2386.78 362.34 2371.06 368.347 2359.05 380.36C2347.03 392.02 2341.03 408.627 2341.03 430.18V586H2261.53ZM2602.18 592.36C2573.91 592.36 2548.65 585.647 2526.39 572.22C2504.13 558.793 2486.46 540.597 2473.39 517.63C2460.67 494.663 2454.31 469.223 2454.31 441.31C2454.31 413.043 2460.85 387.603 2473.92 364.99C2486.99 342.023 2504.66 323.827 2526.92 310.4C2549.18 296.973 2574.09 290.26 2601.65 290.26C2622.85 290.26 2641.58 294.323 2657.83 302.45C2674.44 310.223 2687.51 321.353 2697.05 335.84L2684.86 351.74V184.79H2764.36V586H2690.16V533L2697.58 549.43C2687.69 563.563 2674.26 574.34 2657.3 581.76C2640.34 588.827 2621.97 592.36 2602.18 592.36ZM2611.72 520.81C2626.21 520.81 2638.93 517.453 2649.88 510.74C2660.83 504.027 2669.31 494.663 2675.32 482.65C2681.68 470.637 2684.86 456.857 2684.86 441.31C2684.86 425.763 2681.68 411.983 2675.32 399.97C2669.31 387.957 2660.83 378.593 2649.88 371.88C2638.93 365.167 2626.21 361.81 2611.72 361.81C2597.23 361.81 2584.16 365.343 2572.5 372.41C2561.19 379.123 2552.36 388.487 2546 400.5C2539.64 412.16 2536.46 425.763 2536.46 441.31C2536.46 456.857 2539.64 470.637 2546 482.65C2552.36 494.663 2561.19 504.027 2572.5 510.74C2584.16 517.453 2597.23 520.81 2611.72 520.81Z" fill="#5865F2"/>
</svg>
